<svg viewBox="0 0 21 22" fill="#55298A" xmlns="http://www.w3.org/2000/svg" class="_18fzkjw8 _18fzkjw9"><path d="M7.20691 21.5631L7.01296 21.8891C4.70576 21.3598 2.60868 20.1361 0.972229 18.4211C1.15002 13.9834 2.73394 9.68968 6.23715 7.00928L6.52 7.29722C4.9078 9.81248 4.45525 12.8105 4.95628 15.6857C5.30378 17.7267 6.09978 19.8227 7.20287 21.5673L7.20691 21.5631Z"></path><path d="M20.0237 15.9355C18.8964 17.8199 17.2559 19.3909 15.2558 20.4325C11.4334 18.942 8.18069 16.2362 6.86749 12.2685L7.21095 12.0864C8.98882 14.3265 11.5506 15.6307 14.2861 16.0033C16.0599 16.2574 17.9913 16.1642 19.7652 15.745L20.0278 15.9355H20.0237Z"></path><path d="M18.0883 11.1083C16.1205 12.3871 13.8739 13.1662 11.4334 13.1789L11.3647 12.7767C14.1123 11.7308 16.2013 9.59659 17.4297 6.98394C17.4781 6.88231 17.5266 6.78068 17.5751 6.67482L17.9145 6.64941C18.363 8.14841 18.4034 9.68128 18.0883 11.1125V11.1083Z"></path><path d="M14.2457 8.45743L13.8376 8.39815C13.7123 5.38745 12.3304 2.69434 10.2212 0.682979C10.1404 0.606759 10.0555 0.526304 9.97473 0.454319L10.0798 0.111328C11.6071 0.140969 13.082 0.56018 14.379 1.31391C14.977 3.63439 15.0093 6.0692 14.2416 8.45743H14.2457Z"></path><path d="M10.6697 4.84107L10.5 5.18406C7.77665 4.42609 4.96438 4.87071 2.55617 6.16221C2.48344 6.20032 2.40666 6.24267 2.33393 6.28501L2.01068 6.10717C2.46727 4.79025 3.26327 3.5919 4.32192 2.65186C6.5685 2.79159 8.75044 3.47334 10.6657 4.84107H10.6697Z"></path></svg>