<svg xmlns="http://www.w3.org/2000/svg" viewBox="0.9859997034072876 3.96700119972229 18.628507614135742 13.885000228881836"><g fill="var(--logo-primary)">
  <path d="m19.39 15.6c-2.19 1.39-4.69 2.239-7.409 2.252l-0.075-0.44c3.06-1.137 5.383-3.46 6.751-6.303 0.054-0.111 0.107-0.223 0.16-0.338l0.377-0.027a9.526 9.526 0 0 1 0.196 4.855z" fill-opacity=".75"></path>
  <path d="m14.73 13.02-0.44-0.063c-0.133-3.265-1.63-6.187-3.909-8.367a13.3 13.3 0 0 0-0.266-0.25l0.115-0.373a9.564 9.564 0 0 1 4.646 1.306c0.649 2.518 0.68 5.157-0.147 7.746h1e-3z" fill-opacity=".5"></path>
  <path d="m10.98 8.918-0.195 0.395c-3.145-0.88-6.392-0.364-9.168 1.133a7.312 7.312 0 0 0-0.258 0.142l-0.373-0.204a9.514 9.514 0 0 1 2.67-4.002c2.593 0.164 5.112 0.95 7.324 2.536z" fill-opacity=".25"></path>
 </g></svg>